SplineFontDB: 3.2
FontName: hiContr_Lite_Book
FullName: hiContr Lite Book
FamilyName: hiContr Lite
Weight: Book
Copyright: Copyright (c) 2022, RandomMaerks (aka Bao Nguyen) (rmforbusiness@gmail.com)
UComments: "2022-1-20: Created with FontForge (http://fontforge.org)"
Version: 1.0
ItalicAngle: 0
UnderlinePosition: -100
UnderlineWidth: 50
Ascent: 800
Descent: 200
InvalidEm: 0
LayerCount: 2
Layer: 0 0 "Back" 1
Layer: 1 0 "Fore" 0
XUID: [1021 301 932173752 8938]
OS2Version: 0
OS2_WeightWidthSlopeOnly: 0
OS2_UseTypoMetrics: 1
CreationTime: 1642688069
ModificationTime: 1642688541
OS2TypoAscent: 0
OS2TypoAOffset: 1
OS2TypoDescent: 0
OS2TypoDOffset: 1
OS2TypoLinegap: 0
OS2WinAscent: 0
OS2WinAOffset: 1
OS2WinDescent: 0
OS2WinDOffset: 1
HheadAscent: 0
HheadAOffset: 1
HheadDescent: 0
HheadDOffset: 1
OS2Vendor: 'PfEd'
MarkAttachClasses: 1
DEI: 91125
Encoding: ISO8859-1
UnicodeInterp: none
NameList: AGL For New Fonts
DisplaySize: -48
AntiAlias: 1
FitToEm: 0
WinInfo: 0 38 14
BeginPrivate: 0
EndPrivate
BeginChars: 256 58

StartChar: n
Encoding: 110 110 0
Width: 419
Flags: HW
LayerCount: 2
Fore
SplineSet
62.5 500 m 1
 98 500 l 1
 127.833007812 397.778320312 l 1
 144.606445312 461.139648438 175.456054688 520.5 242 520.5 c 0
 318.645038168 520.5 358.75 451.372340425 358.75 340 c 2
 358.75 0 l 1
 278.25 0 l 1
 278.25 355 l 2
 278.25 435.035714285 261.033898305 479.5 218.5 479.5 c 0
 170.066037736 479.5 143 422.695121952 143 342.5 c 2
 143 0 l 1
 62.5 0 l 1
 62.5 500 l 1
EndSplineSet
EndChar

StartChar: t
Encoding: 116 116 1
Width: 362
Flags: HW
LayerCount: 2
Fore
SplineSet
194.5 650 m 1
 225 650 l 1
 225 500 l 1
 319.5 500 l 1
 319.5 462 l 1
 225 462 l 1
 225 0 l 1
 144.5 0 l 1
 144.5 462 l 1
 42.5 462 l 1
 42.5 480 l 1
 194.5 650 l 1
EndSplineSet
EndChar

StartChar: h
Encoding: 104 104 2
Width: 428
Flags: HW
LayerCount: 2
Fore
SplineSet
62.5 700 m 1
 130.5 700 l 1
 130.5 394.435546875 l 1
 147.588809743 467.963867188 185.31302521 520.5 242 520.5 c 0
 323.076335878 520.5 365.5 451.372340425 365.5 340 c 2
 365.5 0 l 1
 285 0 l 1
 285 362.5 l 2
 285 439.321428572 265.838983051 482 218.5 482 c 0
 170.066037736 482 143 424.158536586 143 342.5 c 2
 143 0 l 1
 62.5 0 l 1
 62.5 700 l 1
EndSplineSet
EndChar

StartChar: u
Encoding: 117 117 3
Width: 428
Flags: HW
LayerCount: 2
Fore
SplineSet
365.5 0 m 1
 330 0 l 1
 299.7109375 110.529296875 l 1
 282.661132812 44.2952362119 251.94921875 -18 186 -18 c 0
 104.923664122 -18 62.5 51.1276595745 62.5 162.5 c 2
 62.5 500 l 1
 143 500 l 1
 143 147.5 l 2
 143 67.4642857143 162.161016949 23 209.5 23 c 0
 257.933962264 23 285 82.9146341463 285 167.5 c 2
 285 500 l 1
 365.5 500 l 1
 365.5 0 l 1
EndSplineSet
EndChar

StartChar: m
Encoding: 109 109 4
Width: 658
Flags: HW
LayerCount: 2
Fore
SplineSet
62.5 500 m 1
 98 500 l 1
 127.833007812 397.778320312 l 1
 144.606445312 461.139648438 175.456054688 520.5 242 520.5 c 0
 310.730957031 520.5 345.253194323 470.053710938 365.16015625 416.860351562 c 1
 377.677695699 477.737304688 414.301254702 520.5 472 520.5 c 0
 553.076335878 520.5 595.5 451.372340425 595.5 340 c 2
 595.5 0 l 1
 522.5 0 l 1
 522.5 362.5 l 2
 522.5 437.714285714 501.177966102 479.5 448.5 479.5 c 0
 400.066037736 479.5 373 427.945652173 373 340 c 2
 373 0 l 1
 292.5 0 l 1
 292.5 362.5 l 2
 292.5 437.714285714 271.177966102 479.5 218.5 479.5 c 0
 170.066037736 479.5 143 422.695121952 143 342.5 c 2
 143 0 l 1
 62.5 0 l 1
 62.5 500 l 1
EndSplineSet
EndChar

StartChar: r
Encoding: 114 114 5
Width: 408
Flags: HW
LayerCount: 2
Fore
SplineSet
62.5 500 m 1
 90.5 500 l 1
 127.833007812 405.278320312 l 1
 145.708346824 468.639648438 178.584567096 528 249.5 528 c 0
 325.652671756 528 365.5 456 365.5 340 c 1
 285 320 l 1
 285 427.357142857 263.677966102 487 211 487 c 0
 167.377358491 487 143 430.195121951 143 350 c 2
 143 0 l 1
 62.5 0 l 1
 62.5 500 l 1
EndSplineSet
EndChar

StartChar: o
Encoding: 111 111 6
Width: 414
Flags: HW
LayerCount: 2
Fore
SplineSet
207.75 523 m 0
 278.809322034 523 354 461 354 335 c 2
 354 175 l 2
 354 49 278.809322034 -13 207.75 -13 c 0
 135.961864407 -13 60 49 60 175 c 2
 60 335 l 2
 60 461 135.961864407 523 207.75 523 c 0
207.75 487 m 0
 159.877118644 487 140.5 447 140.5 375 c 2
 140.5 135 l 2
 140.5 63 159.877118644 23 207.75 23 c 0
 254.555084746 23 273.5 63 273.5 135 c 2
 273.5 375 l 2
 273.5 447 254.555084746 487 207.75 487 c 0
EndSplineSet
EndChar

StartChar: e
Encoding: 101 101 7
Width: 414
Flags: HW
LayerCount: 2
Fore
SplineSet
140.5 263.840820312 m 1
 273.5 282.045898438 l 1
 273.5 384 l 2
 273.5 446.161132812 254.884744364 487 207 487 c 0
 159.661016949 487 140.5 447 140.5 375 c 2
 140.5 263.840820312 l 1
140.5 239.350585938 m 1
 140.5 135 l 2
 140.5 63 159.661016949 23 207 23 c 0
 254.338983051 23 273.5 84.4285714286 273.5 195 c 1
 354 175 l 1
 354 49 278.423728813 -13 207 -13 c 0
 135.576271187 -13 60 49 60 175 c 2
 60 335 l 2
 60 461 135.576271187 523 207 523 c 0
 278.423728813 523 354 461 354 335 c 2
 354 270 l 1
 140.5 239.350585938 l 1
EndSplineSet
EndChar

StartChar: c
Encoding: 99 99 8
Width: 414
Flags: HW
LayerCount: 2
Fore
SplineSet
354 335 m 1
 273.5 315 l 1
 273.5 425.571428571 254.338983051 487 207 487 c 0
 165 487 148 447 148 375 c 2
 148 135 l 2
 148 63 165 23 207 23 c 0
 254.338983051 23 273.5 84.4285714286 273.5 195 c 1
 354 175 l 1
 354 49 278.423728813 -13 207 -13 c 0
 135.576271187 -13 60 49 60 175 c 2
 60 335 l 2
 60 461 135.576271187 523 207 523 c 0
 278.423728813 523 354 461 354 335 c 1
EndSplineSet
EndChar

StartChar: l
Encoding: 108 108 9
Width: 229
Flags: HW
LayerCount: 2
Fore
SplineSet
150.5 0 m 2
 93.8220338983 0 62.5 49 62.5 96 c 2
 62.5 650 l 1
 143 700 l 1
 143 78.5 l 2
 143 54.1086956522 153.888888889 45.5 171 45.5 c 2
 176.5 45.5 l 1
 176.5 0 l 1
 150.5 0 l 2
EndSplineSet
EndChar

StartChar: b
Encoding: 98 98 10
Width: 424
Flags: HW
LayerCount: 2
Fore
SplineSet
232 528 m 0
 304.12244898 528 371.5 456 371.5 340 c 2
 371.5 180 l 2
 371.5 64 304.12244898 -8 232 -8 c 0
 180.104492188 -8 136.338867188 49.2958984375 126.666992188 123.447265625 c 1
 90.5 0 l 1
 62.5 0 l 1
 62.5 700 l 1
 123 700 l 1
 123 414.734375 l 1
 142.3828125 479.25390625 183.663085938 528 232 528 c 0
143 320 m 2
 143 200 l 2
 143 92.6428571432 164.322033898 33 217 33 c 0
 275.016949152 33 298.5 78.3571428572 298.5 160 c 2
 298.5 360 l 2
 298.5 441.642857143 275.016949152 487 217 487 c 0
 164.322033898 487 143 427.357142857 143 320 c 2
EndSplineSet
EndChar

StartChar: d
Encoding: 100 100 11
Width: 424
Flags: HW
LayerCount: 2
Fore
SplineSet
184.5 528 m 0
 116.25510204 528 52.5 456 52.5 340 c 2
 52.5 180 l 2
 52.5 64 116.25510204 -8 184.5 -8 c 0
 240.090610768 -8 286.972468698 49.2958984375 297.333007812 123.447265625 c 1
 333.5 0 l 1
 361.5 0 l 1
 361.5 700 l 1
 301 700 l 1
 301 414.734375 l 1
 280.283507741 479.25390625 236.162848516 528 184.5 528 c 0
281 320 m 2
 281 200 l 2
 281 92.6428571432 259.677966102 33 207 33 c 0
 154.322033898 33 133 78.3571428572 133 160 c 2
 133 360 l 2
 133 441.642857143 154.322033898 487 207 487 c 0
 259.677966102 487 281 427.357142857 281 320 c 2
EndSplineSet
EndChar

StartChar: p
Encoding: 112 112 12
Width: 424
Flags: HW
LayerCount: 2
Fore
SplineSet
239.5 -28 m 0
 307.74489796 -28 371.5 44 371.5 160 c 2
 371.5 320 l 2
 371.5 436 307.74489796 508 239.5 508 c 0
 183.909389232 508 137.027531302 450.704101562 126.666992188 376.552734375 c 1
 90.5 500 l 1
 62.5 500 l 1
 62.5 -150 l 1
 123 -150 l 1
 123 85.265625 l 1
 143.716492259 20.74609375 187.837151484 -28 239.5 -28 c 0
143 180 m 2
 143 300 l 2
 143 407.357142857 164.322033898 467 217 467 c 0
 269.677966102 467 291 421.642857143 291 340 c 2
 291 140 l 2
 291 58.3571428572 269.677966102 13 217 13 c 0
 164.322033898 13 143 72.6428571429 143 180 c 2
EndSplineSet
EndChar

StartChar: q
Encoding: 113 113 13
Width: 424
Flags: HW
LayerCount: 2
Fore
SplineSet
184.5 -28 m 0
 116.25510204 -28 52.5 46.8723404255 52.5 167.5 c 2
 52.5 327.5 l 2
 52.5 438.872340425 116.25510204 508 184.5 508 c 0
 240.090610768 508 286.972468698 450.704101562 297.333007812 376.552734375 c 1
 333.5 500 l 1
 361.5 500 l 1
 361.5 -150 l 1
 301 -150 l 1
 301 85.265625 l 1
 280.283507741 20.74609375 236.162848516 -28 184.5 -28 c 0
281 180 m 2
 281 300 l 2
 281 407.357142857 259.677966102 467 207 467 c 0
 154.322033898 467 133 421.642857143 133 340 c 2
 133 140 l 2
 133 58.3571428572 154.322033898 13 207 13 c 0
 259.677966102 13 281 72.6428571429 281 180 c 2
EndSplineSet
EndChar

StartChar: i
Encoding: 105 105 14
Width: 198
Flags: HW
LayerCount: 2
Fore
SplineSet
135.5 575.75 m 1
 62.5 575.75 l 1
 62.5 655 l 1
 135.5 655 l 1
 135.5 575.75 l 1
135.5 0 m 1
 62.5 0 l 1
 62.5 500 l 1
 135.5 500 l 1
 135.5 0 l 1
EndSplineSet
EndChar

StartChar: a
Encoding: 97 97 15
Width: 434
Flags: HW
LayerCount: 2
Fore
SplineSet
305.743164062 111.01171875 m 1
 296.763908947 52.6780382242 259.572215881 -7.8203036537 192.734356539 -7.8203036537 c 0
 119.440491051 -7.8203036537 62.5 45.9883319074 62.5 137 c 0
 62.5 249.209091824 174.5 292.649414062 298.5 292.649414062 c 1
 298.5 317 l 2
 298.5 422.749999999 275.016949152 481.5 217 481.5 c 0
 158.983050848 481.5 135.5 422.749999999 135.5 317 c 1
 62.5 337 l 1
 62.5 465.65425532 141.93220339 517.5 217 517.5 c 0
 292.067796611 517.5 371.5 461.813829787 371.5 337 c 2
 371.5 0 l 1
 337.5 0 l 1
 305.743164062 111.01171875 l 1
298.5 264.909179688 m 1
 179.703389831 264.909179688 135.5 193.249822821 135.5 143.454101562 c 0
 135.5 106.861374656 158.19119935 40 217 40 c 0
 275.016949152 40 298.5 96.0714285711 298.5 197 c 2
 298.5 264.909179688 l 1
EndSplineSet
EndChar

StartChar: f
Encoding: 102 102 17
Width: 362
Flags: HW
LayerCount: 2
Fore
SplineSet
263.076171875 673.400390625 m 0
 214.20821009 673.400390625 202.5 588.547245263 202.5 500 c 1
 319.5 500 l 1
 319.5 462 l 1
 202.5 462 l 1
 202.5 0 l 1
 122 0 l 1
 122 462 l 1
 42.5 462 l 1
 42.5 500 l 1
 122 500 l 1
 122 659.291992188 181.958487818 720 246.5 720 c 0
 274.5 720 288.865234375 713.916992188 302.5 708 c 1
 302.5 667 l 1
 302.5 667 284.580078125 673.400390625 263.076171875 673.400390625 c 0
EndSplineSet
EndChar

StartChar: g
Encoding: 103 103 18
Width: 424
Flags: HW
LayerCount: 2
Fore
SplineSet
281 228 m 2
 281 300 l 2
 281 408.964285715 259.677966102 469.5 207 469.5 c 0
 154.322033898 469.5 133 426.821428572 133 350 c 2
 133 178 l 2
 133 101.178571429 154.322033898 58.5 207 58.5 c 0
 259.677966102 58.5 281 119.035714285 281 228 c 2
184.5 20 m 0
 116.25510204 20 52.5 92 52.5 208 c 2
 52.5 320 l 2
 52.5 436 116.25510204 508 184.5 508 c 0
 250.802638286 508 286.972468698 460.704101562 297.333007812 376.552734375 c 1
 343.5 500 l 1
 361.5 500 l 1
 361.5 -22 l 2
 361.5 -154 282.067796611 -200 207 -200 c 0
 135.576271187 -200 60 -154 60 -22 c 1
 140.5 -2 l 1
 140.5 -116.352941176 159.661016949 -164 207 -164 c 0
 259.677966102 -164 281 -134 281 -62 c 2
 281 103.265625 l 1
 266.904494382 47 236.910249517 20 184.5 20 c 0
EndSplineSet
EndChar

StartChar: j
Encoding: 106 106 19
Width: 198
Flags: HW
LayerCount: 2
Fore
SplineSet
135.5 575.75 m 1
 62.5 575.75 l 1
 62.5 655 l 1
 135.5 655 l 1
 135.5 575.75 l 1
62.5 -40 m 2
 62.5 500 l 1
 135.5 500 l 1
 135.5 20 l 2
 135.5 -139.291992188 71.9295550848 -200 3.5 -200 c 0
 -24.5 -200 -38.865234375 -193.916992188 -52.5 -188 c 1
 -52.5 -157 l 1
 -52.5 -157 -34.580078125 -163.400390625 -13.076171875 -163.400390625 c 0
 47.892578125 -163.400390625 62.5 -103.014648438 62.5 -40 c 2
EndSplineSet
EndChar

StartChar: k
Encoding: 107 107 20
Width: 412
Flags: HW
LayerCount: 2
Fore
SplineSet
143 0 m 1
 62.5 0 l 1
 62.5 700 l 1
 133 700 l 1
 133 220.895507812 l 1
 332.75 500 l 1
 369.5 500 l 1
 223.127929688 282.509765625 l 1
 369.5 0 l 1
 289 0 l 1
 169.75 231.387695312 l 1
 143 192.387695312 l 1
 143 0 l 1
EndSplineSet
EndChar

StartChar: v
Encoding: 118 118 21
Width: 388
Flags: HW
LayerCount: 2
Fore
SplineSet
229 30 m 1
 315.5 500 l 1
 345.5 500 l 1
 253 0 l 1
 162.5 0 l 1
 42.5 500 l 1
 123 500 l 1
 229 30 l 1
EndSplineSet
EndChar

StartChar: w
Encoding: 119 119 22
Width: 648
Flags: HW
LayerCount: 2
Fore
SplineSet
221.5 30 m 1
 290 500 l 1
 378 500 l 1
 481.5 30 l 1
 577.5 500 l 1
 605.5 500 l 1
 505.5 0 l 1
 420 0 l 1
 314 457.333007812 l 1
 245.5 0 l 1
 160 0 l 1
 42.5 500 l 1
 130.5 500 l 1
 221.5 30 l 1
EndSplineSet
EndChar

StartChar: y
Encoding: 121 121 23
Width: 388
Flags: HW
LayerCount: 2
Fore
SplineSet
235.5 90 m 1
 314.5 500 l 1
 345.5 500 l 1
 211.75 -160 l 1
 134.25 -160 l 1
 185 60 l 1
 165 60 l 1
 42.5 500 l 1
 123 500 l 1
 235.5 90 l 1
EndSplineSet
EndChar

StartChar: x
Encoding: 120 120 24
Width: 406
Flags: HW
LayerCount: 2
Fore
SplineSet
363.5 0 m 1
 283 0 l 1
 188 208 l 1
 85 0 l 1
 42.5 0 l 1
 171 240.614257812 l 1
 42.5 500 l 1
 123 500 l 1
 216.5 293 l 1
 325.5 500 l 1
 363.5 500 l 1
 233.5 260.385742188 l 1
 363.5 0 l 1
EndSplineSet
EndChar

StartChar: z
Encoding: 122 122 25
Width: 408
Flags: HW
LayerCount: 2
Fore
SplineSet
52.5 429.5 m 1
 52.5 500 l 1
 355.5 500 l 1
 355.5 427.5 l 1
 96.4501953121 70.5 l 1
 355.5 70.5 l 1
 355.5 0 l 1
 52.5 0 l 1
 52.5 80.5 l 1
 311.41015625 429.5 l 1
 52.5 429.5 l 1
EndSplineSet
EndChar

StartChar: s
Encoding: 115 115 26
Width: 414
Flags: HW
LayerCount: 2
Fore
SplineSet
133 382 m 0
 133 337.906777871 142.760401953 295.904492332 201.501953125 278 c 0
 255.417967872 254 361.5 249.361880384 361.5 132 c 0
 361.5 36 282.067796611 -16 207 -16 c 0
 131.93220339 -16 52.5 46 52.5 172 c 1
 140.5 192 l 1
 140.5 81.4285714286 159.661016949 20 207 20 c 0
 259.677966102 20 281 86.7692307692 281 132 c 0
 281 177.589248848 262.703441531 219.752929688 224.946289062 231 c 0
 165.14705593 258.495117188 52.5 261.388185845 52.5 372 c 0
 52.5 468 131.93220339 520 207 520 c 0
 282.067796611 520 361.5 468 361.5 332 c 1
 273.5 312 l 1
 273.5 422.571428571 254.338983051 484 207 484 c 0
 154.322033898 484 133 440.083333333 133 382 c 0
EndSplineSet
EndChar

StartChar: H
Encoding: 72 72 27
Width: 498
Flags: HW
LayerCount: 2
Fore
SplineSet
143 0 m 1
 62.5 0 l 1
 62.5 700 l 1
 143 700 l 1
 143 399 l 1
 355 399 l 1
 355 700 l 1
 435.5 700 l 1
 435.5 0 l 1
 355 0 l 1
 355 363 l 1
 143 363 l 1
 143 0 l 1
EndSplineSet
EndChar

StartChar: N
Encoding: 78 78 28
Width: 498
Flags: HW
LayerCount: 2
Fore
SplineSet
143 0 m 1
 62.5 0 l 1
 62.5 700 l 1
 183 700 l 1
 355 56.6669921875 l 1
 355 700 l 1
 435.5 700 l 1
 435.5 0 l 1
 325 0 l 1
 143 666.666992188 l 1
 143 0 l 1
EndSplineSet
EndChar

StartChar: M
Encoding: 77 77 29
Width: 662
Flags: HW
LayerCount: 2
Fore
SplineSet
331 26.36328125 m 1
 469 700 l 1
 599.5 700 l 1
 599.5 0 l 1
 519 0 l 1
 519 676.666992188 l 1
 372 0 l 1
 290 0 l 1
 143 676.666992188 l 1
 143 0 l 1
 62.5 0 l 1
 62.5 700 l 1
 193 700 l 1
 331 26.36328125 l 1
EndSplineSet
EndChar

StartChar: U
Encoding: 85 85 30
Width: 484
Flags: HW
LayerCount: 2
Fore
SplineSet
431.5 190 m 2
 431.5 34 327.811320755 -18 242 -18 c 0
 156.188679245 -18 52.5 34 52.5 190 c 2
 52.5 700 l 1
 133 700 l 1
 133 700 133 340 133 160 c 0
 133 68 181.70212766 36 242 36 c 0
 302.29787234 36 351 88 351 160 c 0
 351 700 l 1
 431.5 700 l 1
 431.5 190 l 2
EndSplineSet
EndChar

StartChar: O
Encoding: 79 79 31
Width: 484
Flags: HW
LayerCount: 2
Fore
SplineSet
242 718 m 0
 327.811320755 718 431.5 666 431.5 510 c 2
 431.5 190 l 2
 431.5 34 327.811320755 -18 242 -18 c 0
 156.188679245 -18 52.5 34 52.5 190 c 2
 52.5 510 l 2
 52.5 666 156.188679245 718 242 718 c 0
242 664 m 0
 181.70212766 664 133 632 133 540 c 2
 133 160 l 2
 133 68 181.70212766 36 242 36 c 0
 302.29787234 36 351 88 351 160 c 2
 351 540 l 2
 351 632 302.29787234 664 242 664 c 0
EndSplineSet
EndChar

StartChar: C
Encoding: 67 67 32
Width: 484
Flags: HW
LayerCount: 2
Fore
SplineSet
431.5 190 m 1
 431.5 34 327.811320755 -18 242 -18 c 0
 156.188679245 -18 52.5 34 52.5 190 c 2
 52.5 510 l 2
 52.5 666 156.188679245 718 242 718 c 0
 327.811320755 718 431.5 666 431.5 510 c 1
 351 490 l 1
 351 619.096774194 302.29787234 664 242 664 c 0
 181.70212766 664 133 632 133 540 c 2
 133 160 l 2
 133 68 181.70212766 36 242 36 c 0
 302.29787234 36 351 108.967741935 351 210 c 1
 431.5 190 l 1
EndSplineSet
EndChar

StartChar: G
Encoding: 71 71 33
Width: 484
Flags: HW
LayerCount: 2
Fore
SplineSet
261 348 m 1
 431.5 348 l 1
 431.5 190 l 2
 431.5 34 327.811320755 -18 242 -18 c 0
 156.188679245 -18 52.5 34 52.5 190 c 2
 52.5 510 l 2
 52.5 666 156.188679245 718 242 718 c 0
 327.811320755 718 431.5 666 431.5 510 c 1
 351 490 l 1
 351 619.096774194 302.29787234 664 242 664 c 0
 181.70212766 664 133 632 133 540 c 2
 133 160 l 2
 133 68 181.70212766 36 242 36 c 0
 302.29787234 36 351 88 351 160 c 2
 351 316 l 1
 251 316 l 1
 261 348 l 1
EndSplineSet
EndChar

StartChar: Q
Encoding: 81 81 34
Width: 484
Flags: HW
LayerCount: 2
Fore
SplineSet
242 664 m 0
 181.70212766 664 133 632 133 540 c 2
 133 160 l 2
 133 68 181.70212766 36 242 36 c 0
 302.29787234 36 351 88 351 160 c 2
 351 540 l 2
 351 632 302.29787234 664 242 664 c 0
242 718 m 0
 327.811320755 718 431.5 666 431.5 510 c 2
 431.5 190 l 2
 431.5 45.7124512969 344.010228594 -9.60545334316 263.903647363 -17.0986236985 c 1
 246.471924806 -30.2508737698 234.5 -44.6788030239 234.5 -59.5 c 0
 234.5 -87.3988844174 255.360341259 -98.1093858206 299.417028814 -98.1093858206 c 0
 359.373409443 -98.1093858206 394 -77 394 -77 c 1
 378 -145 l 1
 378 -145 343.798777752 -157.920785597 295.936554483 -157.920785597 c 0
 239.703304982 -157.920785597 171 -142.594293285 171 -76.5 c 0
 171 -51.9980927349 188.52453377 -30.2831412877 210.949251762 -12.5262872808 c 1
 124.409864764 1.08928623024 52.5 62.3745259581 52.5 190 c 2
 52.5 510 l 2
 52.5 666 156.188679245 718 242 718 c 0
EndSplineSet
EndChar

StartChar: S
Encoding: 83 83 35
Width: 484
Flags: HW
LayerCount: 2
Fore
SplineSet
52.5 530 m 0
 52.5 666 156.188679245 718 242 718 c 0
 327.811320755 718 431.5 666 431.5 510 c 1
 343.5 490 l 1
 343.5 619.096774194 298.148936171 664 242 664 c 0
 180.319148936 664 130.5 619.692307692 130.5 520 c 0
 130.5 432.81048235 179.52774492 386.261969906 241.651367188 371 c 0
 359.976626273 335 431.5 305.021484375 431.5 170 c 0
 431.5 34 327.811320755 -18 242 -18 c 0
 156.188679245 -18 52.5 34 52.5 190 c 1
 140.5 210 l 1
 140.5 108.967741935 185.851063829 36 242 36 c 0
 303.680851065 36 353.5 80.3076923077 353.5 180 c 0
 353.5 248.37286769 314.674780415 316.914201386 246.869140625 333 c 0
 130.085320501 367.564426277 52.5 402.383789062 52.5 530 c 0
EndSplineSet
EndChar

StartChar: A
Encoding: 65 65 36
Width: 498
Flags: HW
LayerCount: 2
Fore
SplineSet
156.51953125 172 m 1
 123 0 l 1
 42.5 0 l 1
 200 700 l 1
 315.5 700 l 1
 455.5 0 l 1
 375 0 l 1
 345.6796875 172 l 1
 156.51953125 172 l 1
159.98046875 203 m 1
 340.0703125 203 l 1
 254 670 l 1
 159.98046875 203 l 1
EndSplineSet
EndChar

StartChar: V
Encoding: 86 86 37
Width: 498
Flags: HW
LayerCount: 2
Fore
SplineSet
279 20 m 1
 417.5 700 l 1
 455.5 700 l 1
 313 0 l 1
 202.5 0 l 1
 42.5 700 l 1
 123 700 l 1
 279 20 l 1
EndSplineSet
EndChar

StartChar: W
Encoding: 87 87 38
Width: 820
Flags: HW
LayerCount: 2
Fore
SplineSet
254 30 m 1
 360 700 l 1
 451.5 700 l 1
 616 30 l 1
 745.5 700 l 1
 777.5 700 l 1
 642 0 l 1
 559.5 0 l 1
 390 671.538085938 l 1
 288 0 l 1
 197.5 0 l 1
 42.5 700 l 1
 123 700 l 1
 254 30 l 1
EndSplineSet
EndChar

StartChar: L
Encoding: 76 76 39
Width: 438
Flags: HW
LayerCount: 2
Fore
SplineSet
143 72.5 m 1
 385.5 72.5 l 1
 385.5 0 l 1
 62.5 0 l 1
 62.5 700 l 1
 143 700 l 1
 143 72.5 l 1
EndSplineSet
EndChar

StartChar: D
Encoding: 68 68 40
Width: 484
Flags: HW
LayerCount: 2
Fore
SplineSet
143 54 m 1
 242 54 l 2
 302.29787234 54 351 106 351 178 c 2
 351 522 l 2
 351 614 302.29787234 646 242 646 c 2
 143 646 l 1
 143 54 l 1
62.5 0 m 1
 62.5 700 l 1
 242 700 l 2
 327.811320755 700 431.5 648 431.5 492 c 2
 431.5 208 l 2
 431.5 52 327.811320755 0 242 0 c 2
 62.5 0 l 1
EndSplineSet
EndChar

StartChar: I
Encoding: 73 73 41
Width: 198
Flags: HW
LayerCount: 2
Fore
SplineSet
135.5 0 m 1
 62.5 0 l 1
 62.5 700 l 1
 135.5 700 l 1
 135.5 0 l 1
EndSplineSet
EndChar

StartChar: B
Encoding: 66 66 42
Width: 484
Flags: HW
LayerCount: 2
Fore
SplineSet
143 66.5 m 1
 227 66.5 l 2
 308.084575688 66.5 348.677734375 118.892997062 348.677734375 227.078125 c 0
 348.677734375 296.569783419 308.151756823 387 227 387 c 2
 143 387 l 1
 143 66.5 l 1
143 411 m 1
 202 411 l 2
 273.088565849 411 308.677734375 438.596774756 308.677734375 502.078125 c 0
 308.677734375 565.99452517 273.147655755 633.5 202 633.5 c 2
 143 633.5 l 1
 143 411 l 1
318.018554688 407.6484375 m 1
 383.5 387 431.5 336.19921875 431.5 244 c 2
 431.5 200 l 2
 431.5 44 327.811320755 0 242 0 c 2
 62.5 0 l 1
 62.5 700 l 1
 202 700 l 2
 323.65573007 700 384.631835938 635.813476562 384.631835938 530.719726562 c 0
 384.631835938 449 351.5 430 318.018554688 407.6484375 c 1
EndSplineSet
EndChar

StartChar: P
Encoding: 80 80 43
Width: 484
Flags: HW
LayerCount: 2
Fore
SplineSet
62.5 700 m 1
 242 700 l 2
 327.811320755 700 431.5 651.75 431.5 507 c 2
 431.5 463 l 2
 431.5 330.466216217 356.131868132 300 272 300 c 2
 143 300 l 1
 143 0 l 1
 62.5 0 l 1
 62.5 700 l 1
143 334 m 1
 227 334 l 2
 308.084358261 334 348.677734375 384.734807911 348.677734375 482.578125 c 0
 348.677734375 552.501371274 308.151600234 633.5 227 633.5 c 2
 143 633.5 l 1
 143 334 l 1
EndSplineSet
EndChar

StartChar: R
Encoding: 82 82 44
Width: 484
Flags: HW
LayerCount: 2
Fore
SplineSet
143 354 m 1
 242 354 l 2
 313.088565849 354 348.677734375 413.05095226 348.677734375 472.078125 c 0
 348.677734375 556.917248865 313.147655755 628.25 242 628.25 c 2
 143 628.25 l 1
 143 354 l 1
62.5 700 m 1
 242 700 l 2
 327.811320755 700 431.5 659.060606061 431.5 507 c 2
 431.5 493 l 2
 431.5 387.2809182 364.5 334.505859375 298.620117188 334.505859375 c 1
 431.5 0 l 1
 341.5 0 l 1
 224.526367188 320 l 1
 143 320 l 1
 143 0 l 1
 62.5 0 l 1
 62.5 700 l 1
EndSplineSet
EndChar

StartChar: T
Encoding: 84 84 45
Width: 468
Flags: HW
LayerCount: 2
Fore
SplineSet
196.5 627.5 m 1
 52.5 627.5 l 1
 52.5 700 l 1
 415.5 700 l 1
 415.5 627.5 l 1
 269.5 627.5 l 1
 269.5 0 l 1
 196.5 0 l 1
 196.5 627.5 l 1
EndSplineSet
EndChar

StartChar: J
Encoding: 74 74 46
Width: 293
Flags: HW
LayerCount: 2
Fore
SplineSet
150 150 m 2
 150 700 l 1
 230.5 700 l 1
 230.5 200 l 2
 230.5 40.7080078125 163.317597987 -20 91 -20 c 0
 63 -20 48.634765625 -13.9169921875 35 -8 c 1
 35 33 l 1
 35 33 52.919921875 26.599609375 74.423828125 26.599609375 c 0
 135.392578125 26.599609375 150 86.985351562 150 150 c 2
EndSplineSet
EndChar

StartChar: E
Encoding: 69 69 47
Width: 438
Flags: HW
LayerCount: 2
Fore
SplineSet
143 386 m 1
 386 386 l 1
 386 340 l 1
 143 340 l 1
 143 71.75 l 1
 408 71.75 l 1
 408 0 l 1
 62.5 0 l 1
 62.5 700 l 1
 408 700 l 1
 408 627.5 l 1
 143 627.5 l 1
 143 386 l 1
EndSplineSet
EndChar

StartChar: F
Encoding: 70 70 48
Width: 438
Flags: HW
LayerCount: 2
Fore
SplineSet
143 627.5 m 1
 143 386 l 1
 386 386 l 1
 386 340 l 1
 143 340 l 1
 143 0 l 1
 62.5 0 l 1
 62.5 700 l 1
 408 700 l 1
 408 627.5 l 1
 143 627.5 l 1
EndSplineSet
EndChar

StartChar: Y
Encoding: 89 89 49
Width: 498
Flags: HW
LayerCount: 2
Fore
SplineSet
266.5 300 m 1
 407.5 700 l 1
 455.5 700 l 1
 291.5 253 l 1
 291.5 0 l 1
 219 0 l 1
 219 253 l 1
 42.5 700 l 1
 123 700 l 1
 266.5 300 l 1
EndSplineSet
EndChar

StartChar: K
Encoding: 75 75 50
Width: 482
Flags: HW
LayerCount: 2
Fore
SplineSet
143 0 m 1
 62.5 0 l 1
 62.5 700 l 1
 143 700 l 1
 143 320.895507812 l 1
 391.5 700 l 1
 439.5 700 l 1
 238.127929688 369.509765625 l 1
 429.5 0 l 1
 334.5 0 l 1
 176 313.387695312 l 1
 143 272.387695312 l 1
 143 0 l 1
EndSplineSet
EndChar

StartChar: X
Encoding: 88 88 51
Width: 514
Flags: HW
LayerCount: 2
Fore
SplineSet
471.5 0 m 1
 388 0 l 1
 248.5 294.75 l 1
 90.5 0 l 1
 42.5 0 l 1
 227.5 331.364257812 l 1
 42.5 700 l 1
 126 700 l 1
 271.5 400.75 l 1
 432.5 700 l 1
 471.5 700 l 1
 292.5 364.135742188 l 1
 471.5 0 l 1
EndSplineSet
EndChar

StartChar: Z
Encoding: 90 90 52
Width: 478
Flags: HW
LayerCount: 2
Fore
SplineSet
52.5 629.5 m 1
 52.5 700 l 1
 425.5 700 l 1
 425.5 627.5 l 1
 96.4501953121 70.5 l 1
 425.5 70.5 l 1
 425.5 0 l 1
 52.5 0 l 1
 52.5 80.5 l 1
 381.41015625 629.5 l 1
 52.5 629.5 l 1
EndSplineSet
EndChar

StartChar: period
Encoding: 46 46 53
Width: 198
Flags: HW
LayerCount: 2
Fore
SplineSet
139.25 0 m 1
 58.75 0 l 1
 58.75 86 l 1
 139.25 86 l 1
 139.25 0 l 1
EndSplineSet
EndChar

StartChar: comma
Encoding: 44 44 54
Width: 198
Flags: HW
LayerCount: 2
Fore
SplineSet
90 -100.5 m 1
 65 -85 l 1
 106.974609375 0 l 1
 58.75 0 l 1
 58.75 86 l 1
 139.25 86 l 1
 139.25 0 l 1
 90 -100.5 l 1
EndSplineSet
EndChar

StartChar: question
Encoding: 63 63 55
Width: 484
Flags: HW
LayerCount: 2
Fore
SplineSet
269.337158203 0 m 1
 188.837158203 0 l 1
 188.837158203 86 l 1
 269.337158203 86 l 1
 269.337158203 0 l 1
262.598632812 297.969726562 m 1
 262.598632812 186 l 1
 191.098632812 186 l 1
 191.098632812 320 l 1
 264.903660249 320 341 375.834862385 341 499 c 0
 341 612.538461538 303.285714286 663 242 663 c 0
 180.714285714 663 143 615.516129032 143 479 c 1
 62.5 499 l 1
 62.5 655 156.693069307 707 242 707 c 0
 327.306930693 707 421.5 655 421.5 499 c 0
 421.5 378.994140625 343.344435772 316 262.598632812 297.969726562 c 1
EndSplineSet
EndChar

StartChar: colon
Encoding: 58 58 56
Width: 198
Flags: HW
LayerCount: 2
Fore
SplineSet
139.25 399.75 m 1
 58.75 399.75 l 1
 58.75 485.75 l 1
 139.25 485.75 l 1
 139.25 399.75 l 1
139.25 109 m 1
 58.75 109 l 1
 58.75 195 l 1
 139.25 195 l 1
 139.25 109 l 1
EndSplineSet
EndChar

StartChar: hyphen
Encoding: 45 45 57
Width: 347
Flags: HW
LayerCount: 2
Fore
SplineSet
40 285.5 m 1
 307 285.5 l 1
 307 222.5 l 1
 40 222.5 l 1
 40 285.5 l 1
EndSplineSet
EndChar
